<?xml version="1.0" encoding="UTF-8" standalone="no"?>
<!DOCTYPE svg PUBLIC "-//W3C//DTD SVG 1.1//EN"
 "http://www.w3.org/Graphics/SVG/1.1/DTD/svg11.dtd">
<!-- Generated by graphviz version 2.38.0 (20140413.2041)
 -->
<!-- Title: G Pages: 1 -->
<svg width="128pt" height="130pt"
 viewBox="0.00 0.00 128.02 130.00" xmlns="http://www.w3.org/2000/svg" xmlns:xlink="http://www.w3.org/1999/xlink">
<g id="graph0" class="graph" transform="scale(1 1) rotate(0) translate(4 126)">
<title>G</title>
<polygon fill="white" stroke="none" points="-4,4 -4,-126 124.015,-126 124.015,4 -4,4"/>
<g id="clust1" class="cluster"><title>cluster_Global</title>
<path fill="none" stroke="gray" d="M20,-8C20,-8 100.015,-8 100.015,-8 106.015,-8 112.015,-14 112.015,-20 112.015,-20 112.015,-102 112.015,-102 112.015,-108 106.015,-114 100.015,-114 100.015,-114 20,-114 20,-114 14,-114 8,-108 8,-102 8,-102 8,-20 8,-20 8,-14 14,-8 20,-8"/>
<text text-anchor="middle" x="60.0076" y="-101.2" font-family="Times,serif" font-size="11.00" fill="gray">Global</text>
</g>
<g id="clust2" class="cluster"><title>cluster_\VATChecker</title>
<path fill="none" stroke="gray" d="M28,-16C28,-16 92.0151,-16 92.0151,-16 98.0151,-16 104.015,-22 104.015,-28 104.015,-28 104.015,-75 104.015,-75 104.015,-81 98.0151,-87 92.0151,-87 92.0151,-87 28,-87 28,-87 22,-87 16,-81 16,-75 16,-75 16,-28 16,-28 16,-22 22,-16 28,-16"/>
<text text-anchor="middle" x="60.0076" y="-74.2" font-family="Times,serif" font-size="11.00" fill="gray">VATChecker</text>
</g>
<!-- \\VATChecker\\VATNumber -->
<g id="node1" class="node"><title>\\VATChecker\\VATNumber</title>
<polygon fill="none" stroke="black" points="96.0227,-60 23.9924,-60 23.9924,-24 96.0227,-24 96.0227,-60"/>
<text text-anchor="middle" x="60.0076" y="-38.7" font-family="Times,serif" font-size="11.00">VATNumber</text>
</g>
</g>
</svg>
